<svg width="16" height="16" viewBox="0 0 16 16" fill="none" xmlns="http://www.w3.org/2000/svg">
<path d="M15.4562 7.8C15.4375 7.75 14.9062 6.575 13.7312 5.39375C12.1625 3.83125 10.1812 3 7.99997 3C5.81872 3 3.83747 3.83125 2.26872 5.39375C1.09372 6.575 0.562474 7.75 0.543724 7.8C0.515819 7.86298 0.501404 7.93111 0.501404 8C0.501404 8.06889 0.515819 8.13702 0.543724 8.2C0.562474 8.25 1.09372 9.425 2.26872 10.6062C3.83747 12.1687 5.81872 13 7.99997 13C10.1812 13 12.1625 12.1687 13.7312 10.6062C14.9062 9.425 15.4375 8.25 15.4562 8.2C15.4841 8.13702 15.4985 8.06889 15.4985 8C15.4985 7.93111 15.4841 7.86298 15.4562 7.8V7.8ZM7.99997 12C6.07497 12 4.39372 11.3 3.00622 9.91875C2.43281 9.35402 1.94627 8.70741 1.56247 8C1.94575 7.29038 2.43231 6.64164 3.00622 6.075C4.39372 4.7 6.07497 4 7.99997 4C9.92497 4 11.6062 4.7 12.9937 6.075C13.5676 6.64164 14.0542 7.29038 14.4375 8C13.9875 8.84375 12.025 12 7.99997 12ZM7.99997 5C7.40663 5 6.82661 5.17595 6.33326 5.50559C5.83992 5.83524 5.4554 6.30377 5.22834 6.85195C5.00127 7.40013 4.94186 8.00333 5.05762 8.58527C5.17337 9.16721 5.4591 9.70176 5.87865 10.1213C6.29821 10.5409 6.83276 10.8266 7.4147 10.9424C7.99665 11.0581 8.59985 10.9987 9.14802 10.7716C9.6962 10.5446 10.1647 10.1601 10.4944 9.66671C10.824 9.17336 11 8.59334 11 8C11 7.20435 10.6839 6.44129 10.1213 5.87868C9.55869 5.31607 8.79562 5 7.99997 5ZM7.99997 10C7.60441 10 7.21773 9.8827 6.88883 9.66294C6.55994 9.44318 6.30359 9.13082 6.15222 8.76537C6.00084 8.39991 5.96123 7.99778 6.0384 7.60982C6.11557 7.22186 6.30606 6.86549 6.58576 6.58579C6.86547 6.30608 7.22183 6.1156 7.60979 6.03843C7.99776 5.96126 8.39989 6.00087 8.76534 6.15224C9.13079 6.30362 9.44315 6.55996 9.66291 6.88886C9.88268 7.21776 9.99997 7.60444 9.99997 8C9.99833 8.52993 9.78708 9.03768 9.41237 9.41239C9.03765 9.78711 8.5299 9.99835 7.99997 10Z" fill="#4D3D66"/>
</svg>
